<svg width="1775" height="1071" viewBox="0 0 1775 1071" fill="none" xmlns="http://www.w3.org/2000/svg">
<g filter="url(#filter0_d_118_2)">
<rect x="4" width="1767" height="1063" fill="white"/>
</g>
<path fill-rule="evenodd" clip-rule="evenodd" d="M4 913.354V810.986C28.8484 747.983 27.468 621.976 77.1648 611.475C126.862 600.975 177.939 705.98 227.636 747.983C278.713 789.985 328.41 768.984 378.107 726.982C429.184 684.979 478.881 621.976 528.578 579.974C579.655 537.971 629.352 516.97 679.049 590.474C730.127 663.978 779.823 831.987 830.901 842.488C880.598 852.988 930.295 705.98 981.372 663.978C1031.07 621.976 1080.77 684.979 1131.84 695.48C1181.54 705.98 1231.24 663.978 1282.31 674.479C1332.01 684.979 1383.09 747.983 1432.79 810.986C1482.48 873.99 1533.56 936.993 1558.41 968.495L1583.26 999.996L1636.02 1063H1558.41C1533.56 1063 1482.48 1063 1432.79 1063C1383.09 1063 1332.01 1063 1282.31 1063C1231.24 1063 1181.54 1063 1131.84 1063C1080.77 1063 1031.07 1063 981.372 1063C930.295 1063 880.598 1063 830.901 1063C779.823 1063 730.127 1063 679.049 1063C629.352 1063 579.655 1063 528.578 1063C478.881 1063 429.184 1063 378.107 1063C328.41 1063 278.713 1063 227.636 1063C177.939 1063 126.862 1063 77.1648 1063C27.468 1063 28.8484 1063 4 1063V913.354Z" fill="#939090" fill-opacity="0.42"/>
<path fill-rule="evenodd" clip-rule="evenodd" d="M4 851.533L30.505 781.044C57.01 710.555 111.493 569.577 164.503 557.829C217.513 546.081 271.995 663.562 325.005 710.555C379.488 757.548 432.498 734.051 485.508 687.059C539.99 640.066 593 569.577 646.01 522.584C700.493 475.592 753.502 452.095 806.512 534.333C860.995 616.57 914.005 804.54 968.488 816.288C1021.5 828.037 1074.51 663.562 1128.99 616.57C1182 569.577 1235.01 640.066 1289.49 651.814C1342.5 663.562 1395.51 616.57 1450 628.318C1503.01 640.066 1557.49 710.555 1610.5 781.044C1663.51 851.533 1717.99 922.022 1744.5 957.266L1771 992.511V1063H1744.5C1717.99 1063 1663.51 1063 1610.5 1063C1557.49 1063 1503.01 1063 1450 1063C1395.51 1063 1342.5 1063 1289.49 1063C1235.01 1063 1182 1063 1128.99 1063C1074.51 1063 1021.5 1063 968.488 1063C914.005 1063 860.995 1063 806.512 1063C753.502 1063 700.493 1063 646.01 1063C593 1063 539.99 1063 485.508 1063C432.498 1063 379.488 1063 325.005 1063C271.995 1063 217.513 1063 164.503 1063C111.493 1063 57.01 1063 30.505 1063H4V851.533Z" fill="#939090" fill-opacity="0.17"/>
<defs>
<filter id="filter0_d_118_2" x="0" y="0" width="1775" height="1071" filterUnits="userSpaceOnUse" color-interpolation-filters="sRGB">
<feFlood flood-opacity="0" result="BackgroundImageFix"/>
<feColorMatrix in="SourceAlpha" type="matrix" values="0 0 0 0 0 0 0 0 0 0 0 0 0 0 0 0 0 0 127 0" result="hardAlpha"/>
<feOffset dy="4"/>
<feGaussianBlur stdDeviation="2"/>
<feComposite in2="hardAlpha" operator="out"/>
<feColorMatrix type="matrix" values="0 0 0 0 0 0 0 0 0 0 0 0 0 0 0 0 0 0 0.25 0"/>
<feBlend mode="normal" in2="BackgroundImageFix" result="effect1_dropShadow_118_2"/>
<feBlend mode="normal" in="SourceGraphic" in2="effect1_dropShadow_118_2" result="shape"/>
</filter>
</defs>
</svg>
