<svg width="550" height="500" viewBox="0 0 1386 849" fill="none" xmlns="http://www.w3.org/2000/svg">
<g filter="url(#filter0_b_2_29)">
<rect x="3.5" y="3.5" width="1379" height="841.324" rx="63.5" fill="white" stroke="black" stroke-width="7"/>
<rect x="99.7028" y="95.0676" width="383.789" height="59.3297" fill="black"/>
<rect x="99.7028" y="244.319" width="179.843" height="124.222" rx="30" fill="black"/>
<line x1="99.7028" y1="487.689" x2="350" y2="487.689" stroke="black" stroke-width="12"/>
<line x1="416.746" y1="487.689" x2="667.043" y2="487.689" stroke="black" stroke-width="12"/>
<line x1="740.278" y1="487.689" x2="990.576" y2="487.689" stroke="black" stroke-width="12"/>
<line x1="1057.32" y1="487.689" x2="1307.62" y2="487.689" stroke="black" stroke-width="12"/>
<line x1="99.7028" y1="726.862" x2="279.546" y2="726.862" stroke="black" stroke-width="12"/>
<line x1="386.154" y1="726.862" x2="565.997" y2="726.862" stroke="black" stroke-width="12"/>
<path fill-rule="evenodd" clip-rule="evenodd" d="M1165.46 666.097C1157.89 676.169 1153.41 688.689 1153.41 702.257C1153.41 715.824 1157.89 728.345 1165.46 738.417C1154.47 753.049 1136.97 762.514 1117.26 762.514C1083.98 762.514 1057 735.536 1057 702.257C1057 668.978 1083.98 642 1117.26 642C1136.97 642 1154.47 651.464 1165.46 666.097Z" fill="#BFBFBF"/>
<path fill-rule="evenodd" clip-rule="evenodd" d="M1165.46 738.417C1173.03 728.345 1177.51 715.824 1177.51 702.257C1177.51 688.689 1173.03 676.169 1165.46 666.097C1176.46 651.465 1193.96 642 1213.67 642C1246.95 642 1273.92 668.978 1273.92 702.257C1273.92 735.536 1246.95 762.514 1213.67 762.514C1193.96 762.514 1176.46 753.049 1165.46 738.417Z" fill="#002766"/>
<path d="M102.763 585.231H131.563V590.811H119.923V628.611H114.103V590.811H102.763V585.231ZM130.821 615.951C130.821 613.471 131.401 611.231 132.561 609.231C133.761 607.231 135.401 605.651 137.481 604.491C139.561 603.331 141.921 602.751 144.561 602.751C147.281 602.751 149.661 603.331 151.701 604.491C153.741 605.651 155.321 607.231 156.441 609.231C157.561 611.231 158.121 613.471 158.121 615.951C158.121 618.431 157.561 620.691 156.441 622.731C155.321 624.731 153.721 626.311 151.641 627.471C149.601 628.631 147.221 629.211 144.501 629.211C141.861 629.211 139.501 628.671 137.421 627.591C135.381 626.471 133.761 624.931 132.561 622.971C131.401 620.971 130.821 618.631 130.821 615.951ZM136.401 616.011C136.401 617.611 136.761 619.071 137.481 620.391C138.201 621.671 139.161 622.691 140.361 623.451C141.601 624.211 142.961 624.591 144.441 624.591C146.001 624.591 147.381 624.211 148.581 623.451C149.821 622.691 150.781 621.671 151.461 620.391C152.141 619.071 152.481 617.611 152.481 616.011C152.481 614.411 152.141 612.971 151.461 611.691C150.781 610.371 149.821 609.331 148.581 608.571C147.381 607.771 146.001 607.371 144.441 607.371C142.921 607.371 141.541 607.771 140.301 608.571C139.101 609.371 138.141 610.431 137.421 611.751C136.741 613.031 136.401 614.451 136.401 616.011ZM184.66 628.611V582.171H190.24V628.611H184.66ZM196.24 612.111L207.64 628.611H201.1L192.52 615.231L196.24 612.111ZM188.5 620.691L187.96 615.351L203.02 603.231L206.44 606.171L188.5 620.691ZM225.126 629.211C222.286 629.211 219.846 628.651 217.806 627.531C215.766 626.371 214.186 624.811 213.066 622.851C211.986 620.851 211.446 618.571 211.446 616.011C211.446 613.571 212.066 611.351 213.306 609.351C214.546 607.351 216.206 605.751 218.286 604.551C220.366 603.351 222.686 602.751 225.246 602.751C228.526 602.751 231.246 603.711 233.406 605.631C235.566 607.551 237.026 610.191 237.786 613.551L217.326 620.751L216.006 617.451L232.806 611.331L231.606 612.111C231.126 610.791 230.326 609.651 229.206 608.691C228.086 607.691 226.626 607.191 224.826 607.191C223.306 607.191 221.946 607.571 220.746 608.331C219.546 609.051 218.606 610.051 217.926 611.331C217.246 612.611 216.906 614.071 216.906 615.711C216.906 617.431 217.266 618.951 217.986 620.271C218.706 621.551 219.686 622.571 220.926 623.331C222.206 624.051 223.646 624.411 225.246 624.411C226.326 624.411 227.366 624.211 228.366 623.811C229.406 623.411 230.366 622.891 231.246 622.251L233.826 626.391C232.586 627.231 231.186 627.911 229.626 628.431C228.106 628.951 226.606 629.211 225.126 629.211ZM256.298 629.211C253.458 629.211 251.018 628.651 248.978 627.531C246.938 626.371 245.358 624.811 244.238 622.851C243.158 620.851 242.618 618.571 242.618 616.011C242.618 613.571 243.238 611.351 244.478 609.351C245.718 607.351 247.378 605.751 249.458 604.551C251.538 603.351 253.858 602.751 256.418 602.751C259.698 602.751 262.418 603.711 264.578 605.631C266.738 607.551 268.198 610.191 268.958 613.551L248.498 620.751L247.178 617.451L263.978 611.331L262.778 612.111C262.298 610.791 261.498 609.651 260.378 608.691C259.258 607.691 257.798 607.191 255.998 607.191C254.478 607.191 253.118 607.571 251.918 608.331C250.718 609.051 249.778 610.051 249.098 611.331C248.418 612.611 248.078 614.071 248.078 615.711C248.078 617.431 248.438 618.951 249.158 620.271C249.878 621.551 250.858 622.571 252.098 623.331C253.378 624.051 254.818 624.411 256.418 624.411C257.498 624.411 258.538 624.211 259.538 623.811C260.578 623.411 261.538 622.891 262.418 622.251L264.998 626.391C263.758 627.231 262.358 627.911 260.798 628.431C259.278 628.951 257.778 629.211 256.298 629.211ZM290.589 629.211C288.709 629.211 286.889 628.771 285.129 627.891C283.409 627.011 282.069 625.831 281.109 624.351L281.469 622.611V640.551H275.949V603.411H280.749L281.529 609.771L280.929 608.031C282.129 606.511 283.649 605.251 285.489 604.251C287.329 603.251 289.389 602.751 291.669 602.751C293.989 602.751 296.069 603.311 297.909 604.431C299.789 605.551 301.269 607.111 302.349 609.111C303.429 611.111 303.969 613.451 303.969 616.131C303.969 618.811 303.389 621.131 302.229 623.091C301.069 625.051 299.469 626.571 297.429 627.651C295.429 628.691 293.149 629.211 290.589 629.211ZM289.509 624.771C291.109 624.771 292.569 624.411 293.889 623.691C295.249 622.931 296.329 621.911 297.129 620.631C297.929 619.311 298.329 617.831 298.329 616.191C298.329 614.511 297.949 613.031 297.189 611.751C296.429 610.431 295.409 609.391 294.129 608.631C292.889 607.871 291.489 607.491 289.929 607.491C288.489 607.491 287.189 607.771 286.029 608.331C284.869 608.891 283.909 609.671 283.149 610.671C282.389 611.631 281.849 612.751 281.529 614.031V618.171C281.729 619.451 282.209 620.591 282.969 621.591C283.729 622.591 284.669 623.371 285.789 623.931C286.949 624.491 288.189 624.771 289.509 624.771ZM332.6 640.551L348.98 603.771H354.14L338.12 640.551H332.6ZM338.72 628.791L326.78 603.771H333.08L343.1 625.971L338.72 628.791ZM357.227 615.951C357.227 613.471 357.807 611.231 358.967 609.231C360.167 607.231 361.807 605.651 363.887 604.491C365.967 603.331 368.327 602.751 370.967 602.751C373.687 602.751 376.067 603.331 378.107 604.491C380.147 605.651 381.727 607.231 382.847 609.231C383.967 611.231 384.527 613.471 384.527 615.951C384.527 618.431 383.967 620.691 382.847 622.731C381.727 624.731 380.127 626.311 378.047 627.471C376.007 628.631 373.627 629.211 370.907 629.211C368.267 629.211 365.907 628.671 363.827 627.591C361.787 626.471 360.167 624.931 358.967 622.971C357.807 620.971 357.227 618.631 357.227 615.951ZM362.807 616.011C362.807 617.611 363.167 619.071 363.887 620.391C364.607 621.671 365.567 622.691 366.767 623.451C368.007 624.211 369.367 624.591 370.847 624.591C372.407 624.591 373.787 624.211 374.987 623.451C376.227 622.691 377.187 621.671 377.867 620.391C378.547 619.071 378.887 617.611 378.887 616.011C378.887 614.411 378.547 612.971 377.867 611.691C377.187 610.371 376.227 609.331 374.987 608.571C373.787 607.771 372.407 607.371 370.847 607.371C369.327 607.371 367.947 607.771 366.707 608.571C365.507 609.371 364.547 610.431 363.827 611.751C363.147 613.031 362.807 614.451 362.807 616.011ZM399.942 629.571C397.702 629.571 395.842 628.891 394.362 627.531C392.922 626.131 392.162 624.331 392.082 622.131V603.771H397.662V620.151C397.742 621.511 398.122 622.611 398.802 623.451C399.522 624.291 400.642 624.731 402.162 624.771C403.562 624.771 404.802 624.371 405.882 623.571C407.002 622.731 407.902 621.611 408.582 620.211C409.262 618.771 409.602 617.151 409.602 615.351V603.771H415.182V628.611H410.082L409.602 622.491L409.902 623.571C409.422 624.731 408.682 625.771 407.682 626.691C406.722 627.571 405.582 628.271 404.262 628.791C402.942 629.311 401.502 629.571 399.942 629.571ZM441.661 615.951C441.661 613.471 442.241 611.231 443.401 609.231C444.601 607.231 446.241 605.651 448.321 604.491C450.401 603.331 452.761 602.751 455.401 602.751C458.121 602.751 460.501 603.331 462.541 604.491C464.581 605.651 466.161 607.231 467.281 609.231C468.401 611.231 468.961 613.471 468.961 615.951C468.961 618.431 468.401 620.691 467.281 622.731C466.161 624.731 464.561 626.311 462.481 627.471C460.441 628.631 458.061 629.211 455.341 629.211C452.701 629.211 450.341 628.671 448.261 627.591C446.221 626.471 444.601 624.931 443.401 622.971C442.241 620.971 441.661 618.631 441.661 615.951ZM447.241 616.011C447.241 617.611 447.601 619.071 448.321 620.391C449.041 621.671 450.001 622.691 451.201 623.451C452.441 624.211 453.801 624.591 455.281 624.591C456.841 624.591 458.221 624.211 459.421 623.451C460.661 622.691 461.621 621.671 462.301 620.391C462.981 619.071 463.321 617.611 463.321 616.011C463.321 614.411 462.981 612.971 462.301 611.691C461.621 610.371 460.661 609.331 459.421 608.571C458.221 607.771 456.841 607.371 455.281 607.371C453.761 607.371 452.381 607.771 451.141 608.571C449.941 609.371 448.981 610.431 448.261 611.751C447.581 613.031 447.241 614.451 447.241 616.011ZM481.496 603.771L481.976 609.831L481.736 608.871C482.536 607.031 483.836 605.571 485.636 604.491C487.436 603.371 489.516 602.811 491.876 602.811C494.236 602.811 496.156 603.511 497.636 604.911C499.156 606.271 499.936 608.051 499.976 610.251V628.611H494.336V612.231C494.296 610.871 493.896 609.771 493.136 608.931C492.416 608.051 491.276 607.611 489.716 607.611C488.276 607.611 486.976 608.011 485.816 608.811C484.656 609.611 483.736 610.711 483.056 612.111C482.416 613.511 482.096 615.131 482.096 616.971V628.611H476.516V603.771H481.496ZM530.764 640.551L547.144 603.771H552.304L536.284 640.551H530.764ZM536.884 628.791L524.944 603.771H531.244L541.264 625.971L536.884 628.791ZM555.391 615.951C555.391 613.471 555.971 611.231 557.131 609.231C558.331 607.231 559.971 605.651 562.051 604.491C564.131 603.331 566.491 602.751 569.131 602.751C571.851 602.751 574.231 603.331 576.271 604.491C578.311 605.651 579.891 607.231 581.011 609.231C582.131 611.231 582.691 613.471 582.691 615.951C582.691 618.431 582.131 620.691 581.011 622.731C579.891 624.731 578.291 626.311 576.211 627.471C574.171 628.631 571.791 629.211 569.071 629.211C566.431 629.211 564.071 628.671 561.991 627.591C559.951 626.471 558.331 624.931 557.131 622.971C555.971 620.971 555.391 618.631 555.391 615.951ZM560.971 616.011C560.971 617.611 561.331 619.071 562.051 620.391C562.771 621.671 563.731 622.691 564.931 623.451C566.171 624.211 567.531 624.591 569.011 624.591C570.571 624.591 571.951 624.211 573.151 623.451C574.391 622.691 575.351 621.671 576.031 620.391C576.711 619.071 577.051 617.611 577.051 616.011C577.051 614.411 576.711 612.971 576.031 611.691C575.351 610.371 574.391 609.331 573.151 608.571C571.951 607.771 570.571 607.371 569.011 607.371C567.491 607.371 566.111 607.771 564.871 608.571C563.671 609.371 562.711 610.431 561.991 611.751C561.311 613.031 560.971 614.451 560.971 616.011ZM598.106 629.571C595.866 629.571 594.006 628.891 592.526 627.531C591.086 626.131 590.326 624.331 590.246 622.131V603.771H595.826V620.151C595.906 621.511 596.286 622.611 596.966 623.451C597.686 624.291 598.806 624.731 600.326 624.771C601.726 624.771 602.966 624.371 604.046 623.571C605.166 622.731 606.066 621.611 606.746 620.211C607.426 618.771 607.766 617.151 607.766 615.351V603.771H613.346V628.611H608.246L607.766 622.491L608.066 623.571C607.586 624.731 606.846 625.771 605.846 626.691C604.886 627.571 603.746 628.271 602.426 628.791C601.106 629.311 599.666 629.571 598.106 629.571ZM627.98 603.771L628.52 610.971L628.22 610.011C628.86 608.491 629.78 607.211 630.98 606.171C632.22 605.091 633.5 604.271 634.82 603.711C636.18 603.111 637.36 602.811 638.36 602.811L638.06 608.331C636.18 608.211 634.52 608.571 633.08 609.411C631.68 610.251 630.56 611.371 629.72 612.771C628.92 614.171 628.52 615.671 628.52 617.271V628.611H623V603.771H627.98ZM679.663 629.211C677.383 629.211 675.363 628.711 673.603 627.711C671.883 626.711 670.503 625.451 669.463 623.931L670.123 622.191V628.611H664.543V582.171H670.063V609.471L669.883 607.371C670.883 606.011 672.303 604.911 674.143 604.071C676.023 603.191 678.103 602.751 680.383 602.751C682.623 602.751 684.663 603.291 686.503 604.371C688.343 605.451 689.803 606.971 690.883 608.931C692.003 610.851 692.563 613.151 692.563 615.831C692.563 618.631 691.963 621.031 690.763 623.031C689.603 625.031 688.043 626.571 686.083 627.651C684.123 628.691 681.983 629.211 679.663 629.211ZM678.523 624.471C680.123 624.471 681.563 624.091 682.843 623.331C684.123 622.571 685.123 621.551 685.843 620.271C686.563 618.951 686.923 617.451 686.923 615.771C686.923 614.171 686.543 612.731 685.783 611.451C685.063 610.131 684.063 609.091 682.783 608.331C681.543 607.571 680.123 607.191 678.523 607.191C677.163 607.191 675.903 607.451 674.743 607.971C673.583 608.491 672.603 609.211 671.803 610.131C671.003 611.011 670.443 612.051 670.123 613.251V618.231C670.443 619.431 670.983 620.511 671.743 621.471C672.503 622.391 673.463 623.131 674.623 623.691C675.783 624.211 677.083 624.471 678.523 624.471ZM707.97 629.571C705.73 629.571 703.87 628.891 702.39 627.531C700.95 626.131 700.19 624.331 700.11 622.131V603.771H705.69V620.151C705.77 621.511 706.15 622.611 706.83 623.451C707.55 624.291 708.67 624.731 710.19 624.771C711.59 624.771 712.83 624.371 713.91 623.571C715.03 622.731 715.93 621.611 716.61 620.211C717.29 618.771 717.63 617.151 717.63 615.351V603.771H723.21V628.611H718.11L717.63 622.491L717.93 623.571C717.45 624.731 716.71 625.771 715.71 626.691C714.75 627.571 713.61 628.271 712.29 628.791C710.97 629.311 709.53 629.571 707.97 629.571ZM742.944 629.211C740.664 629.211 738.584 628.671 736.704 627.591C734.864 626.471 733.404 624.911 732.324 622.911C731.244 620.871 730.704 618.531 730.704 615.891C730.704 613.131 731.264 610.771 732.384 608.811C733.544 606.851 735.104 605.351 737.064 604.311C739.024 603.271 741.224 602.751 743.664 602.751C745.624 602.751 747.484 603.171 749.244 604.011C751.044 604.851 752.444 606.011 753.444 607.491L753.204 609.471V582.171H758.724V628.611H753.144V622.431L753.744 623.991C752.584 625.511 751.084 626.771 749.244 627.771C747.404 628.731 745.304 629.211 742.944 629.211ZM744.684 624.471C746.164 624.471 747.484 624.211 748.644 623.691C749.804 623.131 750.764 622.371 751.524 621.411C752.284 620.451 752.824 619.311 753.144 617.991V613.311C752.824 612.111 752.244 611.071 751.404 610.191C750.604 609.271 749.624 608.551 748.464 608.031C747.344 607.471 746.084 607.191 744.684 607.191C743.164 607.191 741.764 607.571 740.484 608.331C739.244 609.051 738.244 610.051 737.484 611.331C736.724 612.611 736.344 614.091 736.344 615.771C736.344 617.411 736.724 618.891 737.484 620.211C738.244 621.491 739.264 622.531 740.544 623.331C741.824 624.091 743.204 624.471 744.684 624.471ZM780.37 640.911C778.53 640.911 776.91 640.691 775.51 640.251C774.11 639.851 772.83 639.271 771.67 638.511C770.55 637.751 769.47 636.891 768.43 635.931L771.67 632.151C772.99 633.391 774.33 634.351 775.69 635.031C777.05 635.711 778.57 636.051 780.25 636.051C782.13 636.051 783.71 635.731 784.99 635.091C786.31 634.491 787.31 633.631 787.99 632.511C788.67 631.431 789.01 630.171 789.01 628.731L789.07 622.011L789.55 623.091C788.83 624.811 787.53 626.271 785.65 627.471C783.77 628.631 781.49 629.211 778.81 629.211C776.53 629.211 774.43 628.631 772.51 627.471C770.63 626.311 769.11 624.751 767.95 622.791C766.83 620.791 766.27 618.551 766.27 616.071C766.27 613.471 766.87 611.191 768.07 609.231C769.27 607.231 770.85 605.651 772.81 604.491C774.77 603.331 776.91 602.751 779.23 602.751C781.43 602.751 783.43 603.211 785.23 604.131C787.07 605.011 788.41 606.151 789.25 607.551L788.95 608.571L789.55 603.771H794.65V628.791C794.65 631.031 794.07 633.071 792.91 634.911C791.75 636.751 790.11 638.211 787.99 639.291C785.87 640.371 783.33 640.911 780.37 640.911ZM771.85 615.951C771.85 617.551 772.23 619.011 772.99 620.331C773.75 621.651 774.77 622.691 776.05 623.451C777.37 624.211 778.83 624.591 780.43 624.591C781.91 624.591 783.23 624.331 784.39 623.811C785.59 623.251 786.59 622.511 787.39 621.591C788.19 620.631 788.75 619.531 789.07 618.291V613.371C788.71 612.171 788.11 611.131 787.27 610.251C786.43 609.331 785.43 608.631 784.27 608.151C783.11 607.631 781.83 607.371 780.43 607.371C778.83 607.371 777.37 607.731 776.05 608.451C774.77 609.171 773.75 610.191 772.99 611.511C772.23 612.791 771.85 614.271 771.85 615.951ZM815.809 629.211C812.969 629.211 810.529 628.651 808.489 627.531C806.449 626.371 804.869 624.811 803.749 622.851C802.669 620.851 802.129 618.571 802.129 616.011C802.129 613.571 802.749 611.351 803.989 609.351C805.229 607.351 806.889 605.751 808.969 604.551C811.049 603.351 813.369 602.751 815.929 602.751C819.209 602.751 821.929 603.711 824.089 605.631C826.249 607.551 827.709 610.191 828.469 613.551L808.009 620.751L806.689 617.451L823.489 611.331L822.289 612.111C821.809 610.791 821.009 609.651 819.889 608.691C818.769 607.691 817.309 607.191 815.509 607.191C813.989 607.191 812.629 607.571 811.429 608.331C810.229 609.051 809.289 610.051 808.609 611.331C807.929 612.611 807.589 614.071 807.589 615.711C807.589 617.431 807.949 618.951 808.669 620.271C809.389 621.551 810.369 622.571 811.609 623.331C812.889 624.051 814.329 624.411 815.929 624.411C817.009 624.411 818.049 624.211 819.049 623.811C820.089 623.411 821.049 622.891 821.929 622.251L824.509 626.391C823.269 627.231 821.869 627.911 820.309 628.431C818.789 628.951 817.289 629.211 815.809 629.211ZM837.861 592.851H843.441V603.891H850.281V608.271H843.441V628.611H837.861V608.271H833.301V603.891H837.861V592.851Z" fill="#484848"/>
<path d="M430.889 350.377C425.759 350.377 421.214 349.252 417.254 347.002C413.384 344.752 410.279 341.917 407.939 338.497L409.424 334.582V349.027H396.869V244.537H409.289V305.962L408.884 301.237C411.134 298.177 414.329 295.702 418.469 293.812C422.699 291.832 427.379 290.842 432.509 290.842C437.549 290.842 442.139 292.057 446.279 294.487C450.419 296.917 453.704 300.337 456.134 304.747C458.654 309.067 459.914 314.242 459.914 320.272C459.914 326.572 458.564 331.972 455.864 336.472C453.254 340.972 449.744 344.437 445.334 346.867C440.924 349.207 436.109 350.377 430.889 350.377ZM428.324 339.712C431.924 339.712 435.164 338.857 438.044 337.147C440.924 335.437 443.174 333.142 444.794 330.262C446.414 327.292 447.224 323.917 447.224 320.137C447.224 316.537 446.369 313.297 444.659 310.417C443.039 307.447 440.789 305.107 437.909 303.397C435.119 301.687 431.924 300.832 428.324 300.832C425.264 300.832 422.429 301.417 419.819 302.587C417.209 303.757 415.004 305.377 413.204 307.447C411.404 309.427 410.144 311.767 409.424 314.467V325.672C410.144 328.372 411.359 330.802 413.069 332.962C414.779 335.032 416.939 336.697 419.549 337.957C422.159 339.127 425.084 339.712 428.324 339.712ZM494.579 351.187C489.539 351.187 485.354 349.657 482.024 346.597C478.784 343.447 477.074 339.397 476.894 334.447V293.137H489.449V329.992C489.629 333.052 490.484 335.527 492.014 337.417C493.634 339.307 496.154 340.297 499.574 340.387C502.724 340.387 505.514 339.487 507.944 337.687C510.464 335.797 512.489 333.277 514.019 330.127C515.549 326.887 516.314 323.242 516.314 319.192V293.137H528.869V349.027H517.394L516.314 335.257L516.989 337.687C515.909 340.297 514.244 342.637 511.994 344.707C509.834 346.687 507.269 348.262 504.299 349.432C501.329 350.602 498.089 351.187 494.579 351.187ZM573.27 350.377C568.14 350.377 563.46 349.162 559.23 346.732C555.09 344.212 551.805 340.702 549.375 336.202C546.945 331.612 545.73 326.347 545.73 320.407C545.73 314.197 546.99 308.887 549.51 304.477C552.12 300.067 555.63 296.692 560.04 294.352C564.45 292.012 569.4 290.842 574.89 290.842C579.3 290.842 583.485 291.787 587.445 293.677C591.495 295.567 594.645 298.177 596.895 301.507L596.355 305.962V244.537H608.775V349.027H596.22V335.122L597.57 338.632C594.96 342.052 591.585 344.887 587.445 347.137C583.305 349.297 578.58 350.377 573.27 350.377ZM577.185 339.712C580.515 339.712 583.485 339.127 586.095 337.957C588.705 336.697 590.865 334.987 592.575 332.827C594.285 330.667 595.5 328.102 596.22 325.132V314.602C595.5 311.902 594.195 309.562 592.305 307.582C590.505 305.512 588.3 303.892 585.69 302.722C583.17 301.462 580.335 300.832 577.185 300.832C573.765 300.832 570.615 301.687 567.735 303.397C564.945 305.017 562.695 307.267 560.985 310.147C559.275 313.027 558.42 316.357 558.42 320.137C558.42 323.827 559.275 327.157 560.985 330.127C562.695 333.007 564.99 335.347 567.87 337.147C570.75 338.857 573.855 339.712 577.185 339.712ZM657.479 376.702C653.339 376.702 649.694 376.207 646.544 375.217C643.394 374.317 640.514 373.012 637.904 371.302C635.384 369.592 632.954 367.657 630.614 365.497L637.904 356.992C640.874 359.782 643.889 361.942 646.949 363.472C650.009 365.002 653.429 365.767 657.209 365.767C661.439 365.767 664.994 365.047 667.874 363.607C670.844 362.257 673.094 360.322 674.624 357.802C676.154 355.372 676.919 352.537 676.919 349.297L677.054 334.177L678.134 336.607C676.514 340.477 673.589 343.762 669.359 346.462C665.129 349.072 659.999 350.377 653.969 350.377C648.839 350.377 644.114 349.072 639.794 346.462C635.564 343.852 632.144 340.342 629.534 335.932C627.014 331.432 625.754 326.392 625.754 320.812C625.754 314.962 627.104 309.832 629.804 305.422C632.504 300.922 636.059 297.367 640.469 294.757C644.879 292.147 649.694 290.842 654.914 290.842C659.864 290.842 664.364 291.877 668.414 293.947C672.554 295.927 675.569 298.492 677.459 301.642L676.784 303.937L678.134 293.137H689.609V349.432C689.609 354.472 688.304 359.062 685.694 363.202C683.084 367.342 679.394 370.627 674.624 373.057C669.854 375.487 664.139 376.702 657.479 376.702ZM638.309 320.542C638.309 324.142 639.164 327.427 640.874 330.397C642.584 333.367 644.879 335.707 647.759 337.417C650.729 339.127 654.014 339.982 657.614 339.982C660.944 339.982 663.914 339.397 666.524 338.227C669.224 336.967 671.474 335.302 673.274 333.232C675.074 331.072 676.334 328.597 677.054 325.807V314.737C676.244 312.037 674.894 309.697 673.004 307.717C671.114 305.647 668.864 304.072 666.254 302.992C663.644 301.822 660.764 301.237 657.614 301.237C654.014 301.237 650.729 302.047 647.759 303.667C644.879 305.287 642.584 307.582 640.874 310.552C639.164 313.432 638.309 316.762 638.309 320.542ZM737.218 350.377C730.828 350.377 725.338 349.117 720.748 346.597C716.158 343.987 712.603 340.477 710.083 336.067C707.653 331.567 706.438 326.437 706.438 320.677C706.438 315.187 707.833 310.192 710.623 305.692C713.413 301.192 717.148 297.592 721.828 294.892C726.508 292.192 731.728 290.842 737.488 290.842C744.868 290.842 750.988 293.002 755.848 297.322C760.708 301.642 763.993 307.582 765.703 315.142L719.668 331.342L716.698 323.917L754.498 310.147L751.798 311.902C750.718 308.932 748.918 306.367 746.398 304.207C743.878 301.957 740.593 300.832 736.543 300.832C733.123 300.832 730.063 301.687 727.363 303.397C724.663 305.017 722.548 307.267 721.018 310.147C719.488 313.027 718.723 316.312 718.723 320.002C718.723 323.872 719.533 327.292 721.153 330.262C722.773 333.142 724.978 335.437 727.768 337.147C730.648 338.767 733.888 339.577 737.488 339.577C739.918 339.577 742.258 339.127 744.508 338.227C746.848 337.327 749.008 336.157 750.988 334.717L756.793 344.032C754.003 345.922 750.853 347.452 747.343 348.622C743.923 349.792 740.548 350.377 737.218 350.377ZM786.835 268.567H799.39V293.407H814.78V303.262H799.39V349.027H786.835V303.262H776.575V293.407H786.835V268.567ZM829.95 349.027V244.537H842.505V349.027H829.95ZM856.005 311.902L881.655 349.027H866.94L847.635 318.922L856.005 311.902ZM838.59 331.207L837.375 319.192L871.26 291.922L878.955 298.537L838.59 331.207ZM920.997 350.377C914.607 350.377 909.117 349.117 904.527 346.597C899.937 343.987 896.382 340.477 893.862 336.067C891.432 331.567 890.217 326.437 890.217 320.677C890.217 315.187 891.612 310.192 894.402 305.692C897.192 301.192 900.927 297.592 905.607 294.892C910.287 292.192 915.507 290.842 921.267 290.842C928.647 290.842 934.767 293.002 939.627 297.322C944.487 301.642 947.772 307.582 949.482 315.142L903.447 331.342L900.477 323.917L938.277 310.147L935.577 311.902C934.497 308.932 932.697 306.367 930.177 304.207C927.657 301.957 924.372 300.832 920.322 300.832C916.902 300.832 913.842 301.687 911.142 303.397C908.442 305.017 906.327 307.267 904.797 310.147C903.267 313.027 902.502 316.312 902.502 320.002C902.502 323.872 903.312 327.292 904.932 330.262C906.552 333.142 908.757 335.437 911.547 337.147C914.427 338.767 917.667 339.577 921.267 339.577C923.697 339.577 926.037 339.127 928.287 338.227C930.627 337.327 932.787 336.157 934.767 334.717L940.572 344.032C937.782 345.922 934.632 347.452 931.122 348.622C927.702 349.792 924.327 350.377 920.997 350.377ZM991.134 350.377C984.744 350.377 979.254 349.117 974.664 346.597C970.074 343.987 966.519 340.477 963.999 336.067C961.569 331.567 960.354 326.437 960.354 320.677C960.354 315.187 961.749 310.192 964.539 305.692C967.329 301.192 971.064 297.592 975.744 294.892C980.424 292.192 985.644 290.842 991.404 290.842C998.784 290.842 1004.9 293.002 1009.76 297.322C1014.62 301.642 1017.91 307.582 1019.62 315.142L973.584 331.342L970.614 323.917L1008.41 310.147L1005.71 311.902C1004.63 308.932 1002.83 306.367 1000.31 304.207C997.794 301.957 994.509 300.832 990.459 300.832C987.039 300.832 983.979 301.687 981.279 303.397C978.579 305.017 976.464 307.267 974.934 310.147C973.404 313.027 972.639 316.312 972.639 320.002C972.639 323.872 973.449 327.292 975.069 330.262C976.689 333.142 978.894 335.437 981.684 337.147C984.564 338.767 987.804 339.577 991.404 339.577C993.834 339.577 996.174 339.127 998.424 338.227C1000.76 337.327 1002.92 336.157 1004.9 334.717L1010.71 344.032C1007.92 345.922 1004.77 347.452 1001.26 348.622C997.839 349.792 994.464 350.377 991.134 350.377ZM1068.29 350.377C1064.06 350.377 1059.97 349.387 1056.01 347.407C1052.14 345.427 1049.12 342.772 1046.96 339.442L1047.77 335.527V375.892H1035.35V292.327H1046.15L1047.91 306.637L1046.56 302.722C1049.26 299.302 1052.68 296.467 1056.82 294.217C1060.96 291.967 1065.59 290.842 1070.72 290.842C1075.94 290.842 1080.62 292.102 1084.76 294.622C1088.99 297.142 1092.32 300.652 1094.75 305.152C1097.18 309.652 1098.4 314.917 1098.4 320.947C1098.4 326.977 1097.09 332.197 1094.48 336.607C1091.87 341.017 1088.27 344.437 1083.68 346.867C1079.18 349.207 1074.05 350.377 1068.29 350.377ZM1065.86 340.387C1069.46 340.387 1072.75 339.577 1075.72 337.957C1078.78 336.247 1081.21 333.952 1083.01 331.072C1084.81 328.102 1085.71 324.772 1085.71 321.082C1085.71 317.302 1084.85 313.972 1083.14 311.092C1081.43 308.122 1079.14 305.782 1076.26 304.072C1073.47 302.362 1070.32 301.507 1066.81 301.507C1063.57 301.507 1060.64 302.137 1058.03 303.397C1055.42 304.657 1053.26 306.412 1051.55 308.662C1049.84 310.822 1048.63 313.342 1047.91 316.222V325.537C1048.36 328.417 1049.44 330.982 1051.15 333.232C1052.86 335.482 1054.97 337.237 1057.49 338.497C1060.1 339.757 1062.89 340.387 1065.86 340.387ZM1141.29 350.377C1134.9 350.377 1129.41 349.117 1124.82 346.597C1120.23 343.987 1116.68 340.477 1114.16 336.067C1111.73 331.567 1110.51 326.437 1110.51 320.677C1110.51 315.187 1111.91 310.192 1114.7 305.692C1117.49 301.192 1121.22 297.592 1125.9 294.892C1130.58 292.192 1135.8 290.842 1141.56 290.842C1148.94 290.842 1155.06 293.002 1159.92 297.322C1164.78 301.642 1168.07 307.582 1169.78 315.142L1123.74 331.342L1120.77 323.917L1158.57 310.147L1155.87 311.902C1154.79 308.932 1152.99 306.367 1150.47 304.207C1147.95 301.957 1144.67 300.832 1140.62 300.832C1137.2 300.832 1134.14 301.687 1131.44 303.397C1128.74 305.017 1126.62 307.267 1125.09 310.147C1123.56 313.027 1122.8 316.312 1122.8 320.002C1122.8 323.872 1123.61 327.292 1125.23 330.262C1126.85 333.142 1129.05 335.437 1131.84 337.147C1134.72 338.767 1137.96 339.577 1141.56 339.577C1143.99 339.577 1146.33 339.127 1148.58 338.227C1150.92 337.327 1153.08 336.157 1155.06 334.717L1160.87 344.032C1158.08 345.922 1154.93 347.452 1151.42 348.622C1148 349.792 1144.62 350.377 1141.29 350.377ZM1196.72 293.137L1197.93 309.337L1197.26 307.177C1198.7 303.757 1200.77 300.877 1203.47 298.537C1206.26 296.107 1209.14 294.262 1212.11 293.002C1215.17 291.652 1217.82 290.977 1220.07 290.977L1219.4 303.397C1215.17 303.127 1211.43 303.937 1208.19 305.827C1205.04 307.717 1202.52 310.237 1200.63 313.387C1198.83 316.537 1197.93 319.912 1197.93 323.512V349.027H1185.51V293.137H1196.72Z" fill="#484848"/>
</g>
<defs>
<filter id="filter0_b_2_29" x="-4" y="-4" width="1394" height="856.324" filterUnits="userSpaceOnUse" color-interpolation-filters="sRGB">
<feFlood flood-opacity="0" result="BackgroundImageFix"/>
<feGaussianBlur in="BackgroundImageFix" stdDeviation="2"/>
<feComposite in2="SourceAlpha" operator="in" result="effect1_backgroundBlur_2_29"/>
<feBlend mode="normal" in="SourceGraphic" in2="effect1_backgroundBlur_2_29" result="shape"/>
</filter>
</defs>
</svg>
