<svg width="1440" height="226" viewBox="0 0 1440 226" fill="none" xmlns="http://www.w3.org/2000/svg">
<path fill-rule="evenodd" clip-rule="evenodd" d="M0 144.039L21.6 116.719C43.2 89.3986 87.6 34.758 130.8 30.2046C174 25.6512 218.4 71.185 261.6 89.3985C306 107.612 349.2 98.5053 392.4 80.2918C436.8 62.0783 480 34.758 523.2 16.5444C567.6 -1.66908 610.8 -10.7758 654 21.0978C698.4 52.9715 741.6 125.826 786 130.379C829.2 134.932 872.4 71.185 916.8 52.9715C960 34.758 1003.2 62.0783 1047.6 66.6316C1090.8 71.185 1134 52.9715 1178.4 57.5249C1221.6 62.0783 1266 89.3986 1309.2 116.719C1352.4 144.039 1396.8 171.359 1418.4 185.02L1440 198.68V226H1418.4C1396.8 226 1352.4 226 1309.2 226C1266 226 1221.6 226 1178.4 226C1134 226 1090.8 226 1047.6 226C1003.2 226 960 226 916.8 226C872.4 226 829.2 226 786 226C741.6 226 698.4 226 654 226C610.8 226 567.6 226 523.2 226C480 226 436.8 226 392.4 226C349.2 226 306 226 261.6 226C218.4 226 174 226 130.8 226C87.6 226 43.2 226 21.6 226H0V144.039Z" fill="#939090" fill-opacity="0.17"/>
</svg>


