<svg width="1330" height="202" viewBox="0 0 1330 202" fill="none" xmlns="http://www.w3.org/2000/svg">
<path fill-rule="evenodd" clip-rule="evenodd" d="M0 144V104.324C20.25 79.9049 19.125 31.0669 59.625 26.997C100.125 22.9272 141.75 63.6256 182.25 79.9049C223.875 96.1842 264.375 88.0446 304.875 71.7652C346.5 55.4859 387 31.0669 427.5 14.7875C469.125 -1.49183 509.625 -9.6315 550.125 18.8574C591.75 47.3462 632.25 112.464 673.875 116.533C714.375 120.603 754.875 63.6256 796.5 47.3462C837 31.0669 877.5 55.4859 919.125 59.5557C959.625 63.6256 1000.12 47.3462 1041.75 51.416C1082.25 55.4859 1123.88 79.9049 1164.38 104.324C1204.88 128.743 1246.5 153.162 1266.75 165.371L1287 177.581L1330 202H1266.75C1246.5 202 1204.88 202 1164.38 202C1123.88 202 1082.25 202 1041.75 202C1000.12 202 959.625 202 919.125 202C877.5 202 837 202 796.5 202C754.875 202 714.375 202 673.875 202C632.25 202 591.75 202 550.125 202C509.625 202 469.125 202 427.5 202C387 202 346.5 202 304.875 202C264.375 202 223.875 202 182.25 202C141.75 202 100.125 202 59.625 202C19.125 202 20.25 202 0 202V144Z" fill="#939090" fill-opacity="0.42"/>
</svg>
